<svg width="60" height="48" viewBox="0 0 60 48" fill="none" xmlns="http://www.w3.org/2000/svg">
<ellipse cx="29.9999" cy="23.5273" rx="24.2858" ry="23.5273" fill="white"/>
<path d="M57.6607 28.1336C56.4668 29.5823 54.7998 30.5905 52.9365 30.9917C54.7089 25.7786 54.5545 20.1241 52.5003 15.0104C54.3817 15.3147 56.1006 16.2347 57.3718 17.6186C58.6923 19.0563 59.4442 20.9014 59.497 22.825C59.5498 24.7486 58.9001 26.6298 57.6607 28.1336Z" fill="white" stroke="black"/>
<path d="M7.06348 30.9917C5.20024 30.5905 3.53322 29.5823 2.33931 28.1337C1.0999 26.6298 0.450202 24.7486 0.50298 22.825C0.555759 20.9014 1.30772 19.0563 2.6282 17.6186C3.89938 16.2347 5.61832 15.3147 7.49966 15.0104C5.44549 20.1241 5.29106 25.7785 7.06348 30.9917Z" fill="white" stroke="black"/>
<path d="M52.3466 14.4821C50.0259 9.08315 45.7275 4.71707 40.2862 2.23205C34.845 -0.252978 28.6495 -0.679503 22.9034 1.03533C17.1573 2.75017 12.2709 6.48393 9.19341 11.5112C6.11597 16.5385 5.06725 22.5004 6.25098 28.2386C7.43471 33.9768 10.7664 39.0817 15.5987 42.5614C20.4311 46.0411 26.4191 47.6472 32.3994 47.0677C38.3797 46.4883 43.9253 43.7645 47.9589 39.4257C51.9924 35.0869 54.2259 29.4428 54.2254 23.59C54.2243 20.4628 53.5857 17.367 52.3466 14.4821ZM52.1775 31.6225C50.1169 37.0169 46.0576 41.4649 40.7986 44.0909C35.5395 46.7168 29.4617 47.3306 23.7613 45.8114C18.0608 44.2923 13.1507 40.7501 9.99741 35.8822C6.84408 31.0143 5.67591 25.1732 6.72281 19.5085C7.76971 13.8439 10.9558 8.76606 15.6541 5.27442C20.3524 1.78277 26.2225 0.130247 32.1091 0.642093C37.9957 1.15394 43.4724 3.79307 47.4612 8.04007C51.4501 12.2871 53.6621 17.8343 53.662 23.59C53.6612 26.3321 53.1585 29.0521 52.1775 31.6225V31.6225Z" fill="#001633"/>
<path d="M42.3947 18.2405H17.6059C16.2985 18.2405 15.0446 18.7463 14.1201 19.6466C13.1956 20.5469 12.6763 21.768 12.6763 23.0413C12.6763 24.3146 13.1956 25.5357 14.1201 26.436C15.0446 27.3363 16.2985 27.8421 17.6059 27.8421H42.3947C43.7021 27.8421 44.9559 27.3363 45.8804 26.436C46.8049 25.5357 47.3243 24.3146 47.3243 23.0413C47.3243 21.768 46.8049 20.5469 45.8804 19.6466C44.9559 18.7463 43.7021 18.2405 42.3947 18.2405Z" fill="#001633"/>
</svg>
